<svg width="100" height="100" xmlns="http://www.w3.org/2000/svg"><circle cx="85" cy="60" r="2" transform="matrix(1.22785 0 0 1.22785 -9.05 -10.925)"/><circle cx="83" cy="42" r="2" transform="matrix(1.22785 0 0 1.22785 -9.05 -10.925)"/><circle cx="75" cy="28" r="2" transform="matrix(1.22785 0 0 1.22785 -9.05 -10.925)"/><path d="M84.266 49.117c.123 1.35-.982 2.455-2.333 2.578-1.35.123-2.579-.982-2.579-2.333-.122-1.35.983-2.456 2.333-2.578 1.351-.123 2.456.982 2.579 2.333zM81.81 66.675c.86 1.964 1.474 2.578 3.438 3.438-1.964.86-2.578 1.473-3.438 3.438-.86-1.965-1.473-2.579-3.438-3.438 1.965-.86 2.579-1.474 3.438-3.438zM70.76 36.838c.122 1.35-.983 2.456-2.333 2.579-1.351.122-2.456-.983-2.579-2.333-.123-1.351.982-2.456 2.333-2.579 1.35-.123 2.456.982 2.578 2.333zM72.804 17.192c-2.087 2.825-3.806 1.106-1.105-1.105-2.824-2.087-1.105-3.806 1.105-1.105 2.088-2.824 3.807-1.105 1.105 1.105 2.702 2.088.983 3.807-1.105 1.105zM67.076 62.623c-2.087 2.824-3.806 1.105-1.105-1.105-2.824-2.088-1.105-3.807 1.105-1.105 2.087-2.824 3.806-1.105 1.105 1.105 2.701 2.087.982 3.806-1.105 1.105z"/><circle cx="52" cy="24" r="2" transform="matrix(1.22785 0 0 1.22785 -9.05 -10.925)"/><path d="M56.025 47.889c.123 1.35-.982 2.455-2.333 2.578-1.35.123-2.455-.982-2.578-2.333-.123-1.35.982-2.455 2.333-2.578 1.35-.123 2.456.982 2.578 2.333z"/><circle cx="51" cy="67" r="2" transform="matrix(1.22785 0 0 1.22785 -9.05 -10.925)"/><circle cx="47" cy="31" r="2" transform="matrix(1.22785 0 0 1.22785 -9.05 -10.925)"/><path d="M43.747 41.995c2.087-2.824 3.806-1.105 1.105 1.105 2.824 2.087 1.105 3.806-1.105 1.105-2.088 2.824-3.806 1.105-1.105-1.105-2.701-2.087-.983-3.806 1.105-1.105z"/><circle cx="38" cy="60" r="2" transform="matrix(1.22785 0 0 1.22785 -9.05 -10.925)"/><path d="M25.33 12.65c.859 1.964 1.473 2.578 3.437 3.437-1.964.86-2.578 1.474-3.438 3.438-.86-1.964-1.473-2.578-3.438-3.438 1.965-.86 2.579-1.473 3.438-3.438zM33.924 38.066c.123 1.35-.982 2.456-2.333 2.578-1.35.123-2.456-.982-2.578-2.333-.123-1.35.982-2.455 2.333-2.578 1.35-.123 2.455.982 2.578 2.333z"/><circle cx="26" cy="49" r="2" transform="matrix(1.22785 0 0 1.22785 -9.05 -10.925)"/><path d="M20.295 71.095c-2.579 2.456-3.93.491-.86-1.228-2.455-2.578-.49-3.929 1.228-.86 2.579-2.455 3.93-.49.86 1.229 2.455 2.578.368 4.051-1.228.859z"/><circle cx="22" cy="30" r="2" transform="matrix(1.22785 0 0 1.22785 -9.05 -10.925)"/><path d="M33.924 50.467c-3.07 0-4.666 1.842-6.508 4.298-2.087 2.455-4.543 5.525-9.454 5.525-4.911 0-7.367-3.07-9.454-5.525C6.666 52.309 5.07 50.467 2 50.467v-3.683c4.911 0 7.367 3.07 9.454 5.525 1.965 2.333 3.438 4.297 6.508 4.297s4.666-1.841 6.508-4.297c2.087-2.456 4.543-5.525 9.454-5.525 4.911 0 7.367 3.07 9.454 5.525 1.965 2.333 3.438 4.297 6.508 4.297s4.666-1.841 6.508-4.297c2.087-2.456 4.543-5.525 9.454-5.525 4.911 0 7.367 3.07 9.455 5.525 1.964 2.333 3.438 4.297 6.507 4.297 3.07 0 4.666-1.841 6.508-4.297 2.087-2.456 4.543-5.525 9.454-5.525v3.683c-3.07 0-4.666 1.842-6.507 4.298-2.088 2.455-4.543 5.525-9.455 5.525-4.911 0-7.367-3.07-9.454-5.525-1.842-2.456-3.438-4.298-6.508-4.298s-4.666 1.842-6.507 4.298c-2.088 2.455-4.544 5.525-9.455 5.525-4.911 0-7.367-3.07-9.454-5.525-1.842-2.456-3.438-4.298-6.508-4.298zM33.924 73.761c-3.07 0-4.666 1.842-6.508 4.175-2.087 2.578-4.543 5.648-9.454 5.648-4.911 0-7.367-3.07-9.454-5.648C6.666 75.603 5.07 73.761 2 73.761v-3.683c4.911 0 7.367 3.07 9.454 5.648 1.965 2.333 3.438 4.175 6.508 4.175s4.666-1.842 6.508-4.175c2.087-2.579 4.543-5.648 9.454-5.648 4.911 0 7.367 3.07 9.454 5.648 1.965 2.333 3.438 4.175 6.508 4.175s4.666-1.842 6.508-4.175c2.087-2.579 4.543-5.648 9.454-5.648 4.911 0 7.367 3.07 9.455 5.648 1.964 2.333 3.438 4.175 6.507 4.175 3.07 0 4.666-1.842 6.508-4.175 2.087-2.579 4.543-5.648 9.454-5.648v3.683c-3.07 0-4.666 1.842-6.507 4.175-2.088 2.578-4.543 5.648-9.455 5.648-4.911 0-7.367-3.07-9.454-5.648-1.842-2.333-3.438-4.175-6.508-4.175s-4.666 1.842-6.507 4.175c-2.088 2.578-4.544 5.648-9.455 5.648-4.911 0-7.367-3.07-9.454-5.648-1.842-2.333-3.438-4.175-6.508-4.175zM33.924 27.138c-3.07 0-4.666 1.842-6.508 4.298-2.087 2.455-4.543 5.525-9.454 5.525-4.911 0-7.367-3.07-9.454-5.525C6.666 28.98 5.07 27.138 2 27.138v-3.683c4.911 0 7.367 3.07 9.454 5.525 1.965 2.333 3.438 4.297 6.508 4.297s4.666-1.841 6.508-4.297c2.087-2.456 4.543-5.525 9.454-5.525 4.911 0 7.367 3.07 9.454 5.525 1.965 2.333 3.438 4.297 6.508 4.297s4.666-1.841 6.508-4.297c2.087-2.456 4.543-5.525 9.454-5.525 4.911 0 7.367 3.07 9.455 5.525 1.964 2.333 3.438 4.297 6.507 4.297 3.07 0 4.666-1.841 6.508-4.297 2.087-2.456 4.543-5.525 9.454-5.525v3.683c-3.07 0-4.666 1.842-6.507 4.298-2.088 2.455-4.543 5.525-9.455 5.525-4.911 0-7.367-3.07-9.454-5.525-1.842-2.456-3.438-4.298-6.508-4.298s-4.666 1.842-6.507 4.298c-2.088 2.455-4.544 5.525-9.455 5.525-4.911 0-7.367-3.07-9.454-5.525-1.842-2.456-3.438-4.298-6.508-4.298zM11.823 38.434c.86 1.965 1.473 2.579 3.438 3.438-1.965.86-2.579 1.474-3.438 3.438-.86-1.964-1.474-2.578-3.438-3.438 1.964-.86 2.578-1.473 3.438-3.438z"/><circle cx="16" cy="62" r="2" transform="matrix(1.22785 0 0 1.22785 -9.05 -10.925)"/></svg>