<?xml version="1.0" encoding="UTF-8" standalone="no"?>
<svg
   version="1.1"
   x="0px"
   y="0px"
   viewBox="0 0 100 100"
   enable-background="new 0 0 512 512"
   xml:space="preserve"
   id="svg5"
   sodipodi:docname="barrack.svg"
   width="100"
   height="100"
   inkscape:version="1.3.2 (091e20e, 2023-11-25, custom)"
   xmlns:inkscape="http://www.inkscape.org/namespaces/inkscape"
   xmlns:sodipodi="http://sodipodi.sourceforge.net/DTD/sodipodi-0.dtd"
   xmlns="http://www.w3.org/2000/svg"
   xmlns:svg="http://www.w3.org/2000/svg"><defs
     id="defs5" /><sodipodi:namedview
     id="namedview5"
     pagecolor="#ffffff"
     bordercolor="#666666"
     borderopacity="1.0"
     inkscape:showpageshadow="2"
     inkscape:pageopacity="0.0"
     inkscape:pagecheckerboard="0"
     inkscape:deskcolor="#d1d1d1"
     showgrid="true"
     inkscape:zoom="9.6262564"
     inkscape:cx="49.967503"
     inkscape:cy="47.526264"
     inkscape:window-width="1920"
     inkscape:window-height="1057"
     inkscape:window-x="-8"
     inkscape:window-y="-8"
     inkscape:window-maximized="1"
     inkscape:current-layer="svg5"><inkscape:grid
       id="grid5"
       units="px"
       originx="0"
       originy="0"
       spacingx="1"
       spacingy="1"
       empcolor="#0099e5"
       empopacity="0.30196078"
       color="#0099e5"
       opacity="0.14901961"
       empspacing="5"
       dotted="false"
       gridanglex="30"
       gridanglez="30"
       visible="true" /></sodipodi:namedview><path
     id="path5"
     style="fill:#000000;stroke:none;stroke-width:1px;stroke-linecap:butt;stroke-linejoin:miter;stroke-opacity:1;fill-opacity:1"
     d="M 51.943359 12.994141 C 50.707 12.962296 50 13 50 13 C 50 13 4.8838564 10.755132 5 60 L 5 82 L 24 82 L 25 82 L 75 82 L 95 82 L 95 60 C 95.203252 16.809115 60.597894 13.217048 51.943359 12.994141 z M 49.5 42.558594 L 49.5 80 L 24.992188 80 L 24.884766 50 C 32.323044 45.079292 40.90328 42.616262 49.5 42.558594 z M 51 42.574219 C 59.351249 42.790717 67.657319 45.274362 74.884766 50 L 74.992188 80 L 51 80 L 51 42.574219 z M 10.058594 55 L 19.462891 55 C 19.895696 55 20.248047 55.350398 20.248047 55.783203 L 20.248047 65.185547 C 20.248047 65.618354 19.895696 65.96875 19.462891 65.96875 L 10.058594 65.96875 C 9.6257867 65.96875 9.2753906 65.618354 9.2753906 65.185547 L 9.2753906 55.783203 C 9.2753906 55.350398 9.6257867 55 10.058594 55 z M 80.595703 55 L 90 55 C 90.432808 55 90.783203 55.350397 90.783203 55.783203 L 90.783203 65.185547 C 90.783203 65.618355 90.432808 65.96875 90 65.96875 L 80.595703 65.96875 C 80.162897 65.96875 79.8125 65.618355 79.8125 65.185547 L 79.8125 55.783203 C 79.8125 55.350397 80.162897 55 80.595703 55 z M 10.84375 56.568359 L 10.84375 58.134766 L 18.679688 58.134766 L 18.679688 56.568359 L 10.84375 56.568359 z M 81.378906 56.568359 L 81.378906 58.134766 L 89.216797 58.134766 L 89.216797 56.568359 L 81.378906 56.568359 z M 10.84375 59.703125 L 10.84375 61.269531 L 18.679688 61.269531 L 18.679688 59.703125 L 10.84375 59.703125 z M 81.378906 59.703125 L 81.378906 61.269531 L 89.216797 61.269531 L 89.216797 59.703125 L 81.378906 59.703125 z M 10.84375 62.837891 L 10.84375 64.402344 L 18.679688 64.402344 L 18.679688 62.837891 L 10.84375 62.837891 z M 81.378906 62.837891 L 81.378906 64.402344 L 89.216797 64.402344 L 89.216797 62.837891 L 81.378906 62.837891 z " /></svg>
