<svg viewBox="-5 -10 100 100" width="100" height="100" xmlns="http://www.w3.org/2000/svg"><path d="M21.37 10.822a13.316 13.316 0 014.437-.543c7.925.02 15.852-.02 23.777.008v-.004a8.658 8.658 0 016.07 2.5c2.043 2.054 3.875 4.304 5.863 6.414 2.086 2.254 4.145 4.535 6.211 6.805a13.494 13.494 0 003.223 3.152 4.717 4.717 0 002.547.504c3.383.008 6.77-.004 10.152.004h.004c.882.004 1.765.078 2.636.222 1.254.16 2.48.493 3.64.985a5.552 5.552 0 012.77 3.148c.211.852.297 1.73.254 2.61-.933-.157-1.875.082-2.804-.063-.66.125-1.383-.062-1.989.309a2.118 2.118 0 00.946 4.007c1.293.012 2.586-.011 3.875.012 0 3.008-.016 6.012-.016 9.02a5.068 5.068 0 01-1.398 3.691 5.934 5.934 0 01-5.004 1.531 13.556 13.556 0 00-1.864-7.937 15.455 15.455 0 00-4.316-4.63 14.282 14.282 0 00-11.195-2.234 15.2 15.2 0 00-6.867 3.739 14.462 14.462 0 00-4.336 11.102c-8.25-.032-16.5-.004-24.75-.012a15.418 15.418 0 00-.285-3.766 14.664 14.664 0 00-4.817-7.898 13.77 13.77 0 00-6.136-3.105 13.742 13.742 0 00-9.434 1.113 14.107 14.107 0 00-7.93 13.668c-1.07.062-2.144.023-3.207-.11a5.312 5.312 0 01-4.066-4.363c-.004-3.328.008-6.656.031-9.988 1.746-.055 3.496.027 5.239-.051h.003a2.022 2.022 0 001.79-2.406 2.32 2.32 0 00-2.243-1.7c-1.633-.007-3.261 0-4.894-.003a9.518 9.518 0 01.39-3.383 5.245 5.245 0 012.075-2.211c1.375-.797 3.007-.918 4.433-1.598h-.004a5.864 5.864 0 001.86-1.484c1.914-2.29 3.715-4.668 5.601-6.977 1.723-2.113 3.383-4.277 5.047-6.437v.004a10.002 10.002 0 014.68-3.645m3.02 6.336a3.015 3.015 0 00-1.626 1.25c-1.078 1.402-2.097 2.848-3.148 4.266-1.273 1.832-2.656 3.59-3.91 5.433l.004.004a1.916 1.916 0 001.922 1.399c5.043.011 10.09.027 15.133.003v-.003a3.08 3.08 0 002.96-3.208c-.015-3.144.012-6.285-.035-9.43-2.183 0-4.375-.03-6.558.036-.653-.078-1.305.027-1.953.008h-.004a8.693 8.693 0 00-2.785.242m18.176-.238v9.816h-.004c.035.781.379 1.516.957 2.04a2.923 2.923 0 002.12.75c4.286 0 8.575.015 12.86-.013h.004a1.813 1.813 0 001.82-1.105c.11-.508-.406-.805-.68-1.145-2.832-3.12-5.605-6.3-8.558-9.304v.004a3.262 3.262 0 00-2.153-1.024c-2.12-.02-4.246 0-6.367-.02z"/><path d="M71.166 43.533A10.971 10.971 0 0182.3 50.08c1 2.308 1.188 4.89.531 7.32a11.528 11.528 0 01-3.664 5.602 11.07 11.07 0 01-14.398-.555 10.6 10.6 0 01-3.347-6.203 11.2 11.2 0 011.566-7.625 10.806 10.806 0 018.176-5.086m.14 6.215h.004a4.761 4.761 0 00-3.582 3.308 4.702 4.702 0 007.875 4.57 4.636 4.636 0 00.887-5.59 4.64 4.64 0 00-5.18-2.288zM17.631 43.568a10.734 10.734 0 017.805 2.156 11.313 11.313 0 014.055 6.07 10.956 10.956 0 01-5.438 12.281 10.965 10.965 0 01-13.391-2.36 10.373 10.373 0 01-2.723-7.265 11.019 11.019 0 012.993-7.578 10.694 10.694 0 016.699-3.304m.37 6.148a4.846 4.846 0 00-3.69 3.367 4.745 4.745 0 002.351 5.375 4.742 4.742 0 005.773-1.012 4.97 4.97 0 001.196-3.777 4.754 4.754 0 00-2.133-3.246 5.07 5.07 0 00-3.496-.707z"/></svg>
