<svg width="100" height="100" xmlns="http://www.w3.org/2000/svg"><path d="M9.31 73.898L3.546 62.483v-14.24h7.007V33.325H6.598v-10.85l11.754.114 2.486-7.346h6.555v7.346h1.695v29.949H96.56L89.891 67.23l3.164 1.808v4.86zm75.495-15.71v-2.373h-2.147v2.374zm4.295 0v-2.373h-2.147v2.374zm-61.707-5.537V30.048h-2.939v-3.843h2.939v-1.808l-19.1-.113v7.459h3.956v16.613h3.277l3.617 4.295zm5.65-1.808V38.976h19.1v11.98h-19.1zm21.248 0V38.976h19.1v11.98h-19.1zm21.134 0V38.976h19.1v11.98h-19.1zm-54.7-2.713v-2.373h2.147v2.373zm0-5.877V39.88h2.147v2.373zm12.319-4.746v-11.98h19.1v11.98zm21.247 0v-11.98h19.1v11.98zm21.134 0v-11.98h19.1v11.98zm-54.7-.452V34.68h2.147v2.374zm-6.442-7.007v-3.843h3.39v3.843zm5.086 0v-3.843h3.39v3.843z"/></svg>
