<svg viewBox="-5 -10 100 100" width="100" height="100" xmlns="http://www.w3.org/2000/svg"><path d="M12.47 57.983c-7.063 6.778-1.924 19.08 7.932 18.964h14.075V54.75H20.402c-3.003 0-5.823 1.149-7.931 3.234zM86.037 56.718l-11.545-7.916-12.842 18.23 3.158 2.15c.024.027 8.354 5.733 8.387 5.765 12.479 7.995 24.776-9.406 12.842-18.23zM42.68 50.035c.541 2.897 2.19 5.448 4.66 7.164l11.543 7.915L71.725 46.9l-11.56-7.931c-7.976-5.701-19.381 1.527-17.485 11.065zM58.342 68.815c-.016-.02-12.9-8.852-12.927-8.884-1.974-1.35-3.561-3.134-4.623-5.183h-2.938v22.199H51.93c4.073.024 7.942-2.254 9.839-5.798l-3.207-2.198a1.597 1.597 0 01-.22-.132zM23.253 21.456L11.978 4.143C-9.829 19.853-.278 34.518 23.253 21.456zM37.565.174c-2.921-4.5-13.115-3.431-22.734 2.166l11.256 17.33c9.18-6.317 14.38-15.016 11.475-19.5z"/><path d="M31.238 30.686c6.726-4.295 16.321-13.308 12.879-20.43l-2.784-4.284C38.937 17.278 19.76 30.167 7.58 29.734c-1.164 0-2.262-.1-3.292-.301l2.784 4.299c3.072 4.7 14.124 3.315 24.166-3.05z"/></svg>
