<svg width="100" height="100" xmlns="http://www.w3.org/2000/svg"><path d="M42.228 9.95a37.5 37.5 0 00-37.5 37.5 37.5 37.5 0 0037.5 37.5 37.5 37.5 0 0037.229-33.692h7.992v2.662c0 .666.543 1.211 1.209 1.211h4.6c.665 0 1.208-.545 1.208-1.21v-4.079a5.617 5.617 0 00-5.613-5.613H85.38v-4.611h1.1c.666 0 1.211-.544 1.211-1.21 0-.665-.545-1.21-1.21-1.21h-4.61c-.666 0-1.211.545-1.211 1.21 0 .666.545 1.21 1.21 1.21h1.102v4.61l-3.39-.013A37.5 37.5 0 0042.228 9.95zm0 10a27.5 27.5 0 0127.477 26.722 11.7 11.7 0 00-2.81 1.229 7.136 7.136 0 01-7.388 0 11.701 11.701 0 00-6.302-1.696 11.705 11.705 0 00-6.301 1.696 6.393 6.393 0 01-3.69 1.03 6.398 6.398 0 01-3.691-1.03 11.694 11.694 0 00-6.3-1.696 11.705 11.705 0 00-6.302 1.696 6.393 6.393 0 01-3.689 1.03 6.387 6.387 0 01-3.687-1.03 11.703 11.703 0 00-4.715-1.617A27.5 27.5 0 0142.228 19.95zm-9.006 31.705a6.4 6.4 0 013.692 1.03 11.693 11.693 0 006.3 1.694 11.694 11.694 0 006.301-1.693 7.132 7.132 0 013.692-1.031c1.301 0 2.577.357 3.691 1.03a12.562 12.562 0 0012.236.2 27.5 27.5 0 01-4.011 9.629 7.142 7.142 0 01-1.922.266 7.138 7.138 0 01-3.694-1.032 11.701 11.701 0 00-6.302-1.695 11.705 11.705 0 00-6.301 1.695 6.389 6.389 0 01-3.688 1.032 6.406 6.406 0 01-3.693-1.032 11.695 11.695 0 00-6.3-1.695 11.705 11.705 0 00-6.302 1.695 6.395 6.395 0 01-3.689 1.032 6.389 6.389 0 01-3.687-1.032 11.686 11.686 0 00-1.16-.609 27.5 27.5 0 01-3.27-9.266 6.386 6.386 0 011.818.813 11.698 11.698 0 006.299 1.693 11.693 11.693 0 006.3-1.693 6.395 6.395 0 013.69-1.031zm57.89 5.716s-5.83 8.034-5.83 11.256a5.83 5.83 0 0011.663 0c0-3.222-5.832-11.256-5.832-11.256zm-57.89 8.133a6.398 6.398 0 013.692 1.03 11.694 11.694 0 006.3 1.695 11.696 11.696 0 006.301-1.695 7.13 7.13 0 017.383 0 12.563 12.563 0 003.596 1.392 27.5 27.5 0 01-18.266 7.024 27.5 27.5 0 01-17.992-6.75 11.688 11.688 0 005.297-1.666 6.394 6.394 0 013.69-1.03zm60.906 2.371c.392 0 .708.316.708.707a3.638 3.638 0 01-3.635 3.635.707.707 0 010-1.416c1.224 0 2.22-.994 2.22-2.219 0-.391.316-.707.707-.707z"/></svg>