<svg viewBox="-5 -10 100 100" width="100" height="100" xmlns="http://www.w3.org/2000/svg"><path d="M62.09 42.038a14.286 14.286 0 004.477-4.934 14.114 14.114 0 001.735-6.808c0-3.918-1.586-7.465-4.153-10.027a14.138 14.138 0 00-10.027-4.153 14.14 14.14 0 00-10.027 4.153 14.138 14.138 0 00-4.152 10.027c0 2.472.629 4.789 1.734 6.808a14.285 14.285 0 004.477 4.934h15.945zm-7.968-17.23h-.008c-.05 0-.066 0-.062-.004l-.028-.004a2.083 2.083 0 00-1.37.602 1.925 1.925 0 00-.579 1.37c0 .169-.008-.097-.004.048.031 1.468 1.3 1.847 2.543 2.214 2.219.657 4.395 1.305 4.356 4.723a4.925 4.925 0 01-1.43 3.43 4.832 4.832 0 01-2.016 1.21v1.305a1.405 1.405 0 11-2.812 0v-1.3a4.865 4.865 0 01-2.027-1.215 4.842 4.842 0 01-1.422-3.434 1.405 1.405 0 112.812 0 2.037 2.037 0 002.04 2.043h.007c.559 0 1.062-.226 1.43-.594.379-.379.609-.894.617-1.46.015-1.31-1.152-1.657-2.348-2.012-2.219-.657-4.476-1.328-4.555-4.852-.003-.195-.007.016-.007-.101 0-1.313.543-2.497 1.41-3.36a4.898 4.898 0 012.039-1.21v-1.31a1.405 1.405 0 112.812 0v1.301a4.84 4.84 0 012.028 1.215 4.842 4.842 0 011.422 3.434 1.405 1.405 0 11-2.813 0 2.037 2.037 0 00-2.04-2.043zM12.852 7.652a2.382 2.382 0 00-1.692-.7c-.66 0-1.257.266-1.691.7a2.382 2.382 0 00-.7 1.691c0 .66.266 1.258.7 1.692.434.433 1.031.699 1.691.699.66 0 1.258-.266 1.692-.7.433-.433.699-1.03.699-1.69 0-.661-.266-1.259-.7-1.692zm24.402 24.746a16.91 16.91 0 001.957 6.062 17.077 17.077 0 002.625 3.582l-34.36-.004-.058-.23a3.288 3.288 0 01-.07-.7c0-.921.371-1.753.976-2.355a3.328 3.328 0 012.356-.976c.32 0 .625.043.906.12.297.087.578.208.836.368a1.405 1.405 0 002.125-1.371h.004c-.008-.074-.016-.125-.016-.145 0-.015-.003-.066-.003-.148 0-.66.27-1.258.699-1.692a2.382 2.382 0 011.691-.699c.313 0 .602.055.86.153.28.109.535.265.75.46a1.4 1.4 0 002.336-.964h.003a4.147 4.147 0 011.301-2.805 4.178 4.178 0 012.875-1.137c.906 0 1.746.29 2.43.778a4.214 4.214 0 011.531 2.054 1.404 1.404 0 002.48.356 4.143 4.143 0 011.422-1.125 4.148 4.148 0 011.829-.418c.554 0 1.078.105 1.55.293.344.137.668.32.961.539zm43.434 9.64H66.403a16.939 16.939 0 002.625-3.582c.484-.886.894-1.816 1.219-2.789a4.177 4.177 0 011.941 2.344 1.403 1.403 0 001.773.895c.23-.075.426-.204.582-.368a3.645 3.645 0 012.5-.96c1.028 0 1.954.413 2.63 1.09a3.708 3.708 0 011.09 2.628c0 .258-.024.508-.075.746zm-63.641 2.813v8.363c0 .883.015 1.957.324 2.695.207.493.637.86 1.508.86 1.148 0 1.73-.277 2.004-.684.316-.472.375-1.238.375-1.992 0-1.363.558-2.602 1.453-3.5a4.937 4.937 0 013.5-1.453c1.363 0 2.601.559 3.5 1.453a4.937 4.937 0 011.453 3.5v6.648a2.149 2.149 0 002.14 2.141 2.149 2.149 0 002.141-2.14V44.845H17.05zm-2.813 4.676V44.85H2.992c-.64 0-1.226.262-1.648.687a2.317 2.317 0 000 3.297 2.324 2.324 0 001.648.688h11.242zm24.02 2.812h43.594l-3.636 26.5a2.191 2.191 0 01-.735 1.367 2.198 2.198 0 01-1.457.536H12.481c-.562 0-1.07-.2-1.457-.536-.39-.34-.66-.816-.734-1.367l-3.637-26.5h7.582v.88c0 1.14.024 2.542.543 3.78.621 1.48 1.809 2.586 4.098 2.586 2.254 0 3.562-.785 4.332-1.933.726-1.078.86-2.356.86-3.551a2.149 2.149 0 012.14-2.14 2.149 2.149 0 012.14 2.14v6.648c0 1.364.559 2.602 1.454 3.5a4.937 4.937 0 003.5 1.453 4.953 4.953 0 003.5-1.453 4.937 4.937 0 001.453-3.5zm0-7.488v4.676h47.254c.64 0 1.227-.262 1.649-.688a2.317 2.317 0 000-3.297 2.324 2.324 0 00-1.649-.687H38.254zm44.824-25.203a2.382 2.382 0 00-1.691-.7c-.66 0-1.258.266-1.691.7a2.382 2.382 0 00-.7 1.691c0 .66.266 1.258.7 1.692.433.433 1.03.699 1.69.699.661 0 1.259-.266 1.692-.7.434-.433.7-1.03.7-1.69 0-.66-.266-1.259-.7-1.692zm2.157-22.172a3.38 3.38 0 00-2.399-.992 3.38 3.38 0 00-2.398.992 3.38 3.38 0 00-.992 2.398c0 .938.378 1.785.992 2.399a3.38 3.38 0 002.398.992 3.38 3.38 0 002.399-.992 3.38 3.38 0 00.992-2.399 3.38 3.38 0 00-.992-2.398zM33.649 15.378a3.38 3.38 0 00-2.399-.992 3.38 3.38 0 00-2.398.992 3.38 3.38 0 00-.992 2.398c0 .938.378 1.785.992 2.399a3.38 3.38 0 002.398.992 3.38 3.38 0 002.399-.992 3.38 3.38 0 00.992-2.399 3.38 3.38 0 00-.992-2.398z" fill-rule="evenodd"/></svg>
