<svg width="100" height="100" xmlns="http://www.w3.org/2000/svg"><path d="M50.15 15.209c-1.691-.529-4.42-.529-6.025.002-1.307.434-1.59 1.051-1.596 1.49-.002.123.021.26.078.402a1.092 1.092 0 00-.078.379c-.006.438.254 1.055 1.535 1.521.891.324 2.064.502 3.303.502 1.244 0 2.391-.18 3.23-.506 1.139-.445 1.361-1.031 1.348-1.445a1.073 1.073 0 00-.078-.361 1.06 1.06 0 00.078-.42c-.016-.462-.34-1.109-1.795-1.564zm.084 2.076c-1.436.559-4.285.559-5.828-.004a3.415 3.415 0 01-.387-.168 3.18 3.18 0 01.42-.17c.705-.234 1.652-.363 2.668-.363 1.018 0 1.992.129 2.744.365.256.08.449.16.602.238-.069.034-.129.067-.219.102z"/><path fill-rule="evenodd" clip-rule="evenodd" d="M32.874 54.751c3.889 5.565 7.726 10.734 10.134 16.772.957 2.396.518 4.67-.89 6.747-3.98 5.873-13.76 5.914-17.525-.098-.955-1.527-1.574-3.875-1.153-5.545 1.661-6.585 5.76-11.965 9.434-17.876zM28.18 70.019c-2.193-.175-3.113.961-2.985 2.677.119 1.64.428 3.392 1.166 4.831 1.349 2.646 1.962 2.631 4.273.562-2.474-2.111-3.195-4.822-2.454-8.07z"/><path d="M33.732 89.351c-11.362 0-20.606-9.244-20.606-20.606 0-11.362 9.244-20.606 20.606-20.606 11.362 0 20.606 9.244 20.606 20.606 0 11.362-9.244 20.606-20.606 20.606zm0-39.387c-10.356 0-18.781 8.425-18.781 18.781 0 10.356 8.425 18.781 18.781 18.781 10.356 0 18.781-8.425 18.781-18.781 0-10.356-8.425-18.781-18.781-18.781z"/><path d="M85.748 62.12c.041-.09.092-.178.127-.27.434-1.162.377-2.379-.127-3.545V39.19c.074-.145.154-.287.209-.436.346-.951.26-1.938-.209-2.879V19.622c.766-.729 1.146-1.52 1.125-2.373-.078-3.055-5.324-4.863-9.711-5.842-5.003-1.115-11.431-1.73-18.099-1.73-6.674 0-12.953.615-17.686 1.734-5.627 1.328-8.492 3.172-8.518 5.477-.01.848.371 1.639 1.137 2.371V35.37c-.484.947-.572 1.951-.213 2.922.055.148.139.291.213.436l-.001 7.454c11.327.29 20.603 8.957 21.848 20.025.462.028.923.061 1.399.064l4.23.08 4.367-.158c1.461-.059 2.914-.221 4.352-.324a19.378 19.378 0 002.121-.254c.697-.105 1.384-.211 2.062-.314 1.025-.121 1.996-.361 2.936-.582l-.543-19.703a56.913 56.913 0 004.34-1.303c.309-.107.592-.223.889-.332l-.447 20.156c.02-.008.043-.014.063-.021 1.012-.4 1.912-.834 2.629-1.336.713-.5 1.236-1.084 1.445-1.668a2.11 2.11 0 00-.014-1.422 3.815 3.815 0 00-.219-.479s.109.148.268.457c.154.305.322.84.15 1.5-.178.654-.695 1.326-1.404 1.906a8.342 8.342 0 01-.797.574c-.512.307-1.137.646-1.799.967l-.041.02c-.094.041-.199.076-.295.115v.021c-.672.311-1.361.588-1.984.77-1.584.457-1.066.244-3.73.973-.422.098-.85.188-1.291.24-.686.115-1.384.232-2.089.352-.705.129-1.42.238-2.146.291-1.451.127-2.924.316-4.402.395-1.48.029-2.959.061-4.416.092-1.455-.051-2.887-.1-4.273-.146a16.358 16.358 0 01-1.281-.07c.041.555.069 1.114.069 1.679 0 6.981-3.186 13.231-8.179 17.376.476.103.969.205 1.492.286 1.137.223 2.385.373 3.701.535 1.322.119 2.715.24 4.16.305.723.051 1.457.064 2.201.068.744.014 1.498.021 2.256-.012a56.023 56.023 0 004.592-.279 54.438 54.438 0 004.555-.59c.74-.15 1.482-.275 2.205-.445.716-.189 1.431-.35 2.122-.553.684-.221 1.357-.438 2.016-.648.248-.098.496-.191.744-.285l-.467-16.908a58.368 58.368 0 003.865-1.189c.082-.029.154-.061.234-.088l-.371 16.666c.391-.227.77-.459 1.123-.705.932-.66 1.713-1.367 2.262-2.109.551-.738.848-1.506.934-2.164.1-.662-.014-1.189-.088-1.543l-.17-.529.221.514c.105.346.289.877.229 1.576-.039.695-.295 1.535-.822 2.355-.52.824-1.287 1.631-2.234 2.35-.473.365-1 .719-1.561 1.055l-.293.227c-.477.287-.979.563-1.525.791-.914.383-1.889.766-2.893 1.146-.316.105-.635.209-.955.32-.703.217-1.432.393-2.163.596-.734.186-1.488.322-2.244.488-1.518.283-3.07.514-4.629.67a58.849 58.849 0 01-4.67.217c-.77.021-1.535.002-2.289-.023-.756-.016-1.5-.039-2.232-.102-1.467-.07-2.873-.27-4.205-.447-1.326-.223-2.578-.43-3.719-.707a20.141 20.141 0 01-1.853-.462 22.614 22.614 0 01-2.108 1.477c4.642 1.561 10.046 2.351 15.412 2.351 6.943 0 13.804-1.307 18.798-3.92 5.504-2.883 7.793-6.838 6.307-10.881V62.12zM35.997 18.298s-.42-.316-.547-.438a3.907 3.907 0 01-.43-.52c-.088-.131-.162-.326-.16-.432.008-.709 1.484-2.256 6.977-3.553 4.586-1.084 10.703-1.68 17.227-1.68 6.525 0 12.799.598 17.663 1.684 6.334 1.412 8.094 3.117 8.143 3.918 0 0-.076.379-.359.723-.178.217-.762.672-.762.672-.877.584-2.318 1.227-4.514 1.836-4.684 1.299-11.45 2.043-18.563 2.043-7.119 0-14.082-.746-19.102-2.047-2.868-.743-4.589-1.53-5.573-2.206zm48.47 21.441c-.658.545-1.488 1.031-2.422 1.457v.031a45.13 45.13 0 01-1.594.596 56.266 56.266 0 01-3.74 1.139v-.006c-.705.193-1.428.371-2.182.463-.686.115-1.384.232-2.089.352-.705.129-1.42.238-2.146.291-1.451.125-2.924.314-4.402.393-1.479.031-2.959.063-4.416.092l-4.273-.146c-1.387-.012-2.717-.248-3.98-.361l-1.838-.205-1.711-.299c-1.096-.189-2.094-.387-2.975-.559l-2.238-.627c-1.238-.359-1.945-.566-1.945-.566l1.99.379 2.281.455c.891.102 1.891.215 2.977.363l1.695.219 1.832.117c1.26.057 2.578.211 3.953.219l4.232.082c1.439-.053 2.902-.105 4.365-.16 1.461-.059 2.914-.221 4.352-.322a19.378 19.378 0 002.121-.254c.697-.107 1.384-.213 2.062-.314.803-.096 1.566-.264 2.313-.438l-.512-18.615a57.944 57.944 0 003.549-.801 42.78 42.78 0 002.75-.838l-.416 18.719c.828-.348 1.572-.723 2.182-1.15.713-.498 1.236-1.084 1.445-1.668a2.11 2.11 0 00-.014-1.422c-.125-.316-.219-.479-.219-.479s.109.148.268.459c.154.303.322.838.15 1.5-.179.652-.696 1.322-1.405 1.904z"/></svg>
