<svg fill-rule="evenodd" clip-rule="evenodd" width="100" height="100" xmlns="http://www.w3.org/2000/svg" image-rendering="optimizeQuality" shape-rendering="geometricPrecision" text-rendering="geometricPrecision"><path d="M22.449 4.484h57.74a8.47 8.47 0 015.997 2.492 8.465 8.465 0 012.492 6v74.532c0 2.335-.956 4.46-2.492 6A8.47 8.47 0 0180.188 96h-57.74a8.47 8.47 0 01-5.997-2.492 8.465 8.465 0 01-2.492-6V12.976c0-2.335.956-4.46 2.492-6a8.47 8.47 0 015.998-2.492zm3.602 23.893a2.144 2.144 0 113.034-3.03l4.464 4.463 8.517-8.515a2.144 2.144 0 113.03 3.034L35.067 34.36a2.146 2.146 0 01-3.031 0l-5.98-5.98zm23.117 48.11a2.147 2.147 0 01-2.145-2.146c0-1.183.962-2.145 2.145-2.145h25.9c1.184 0 2.146.962 2.146 2.145a2.147 2.147 0 01-2.145 2.145zm-23.117-3.284a2.144 2.144 0 113.034-3.03l4.464 4.466 8.517-8.518a2.144 2.144 0 113.03 3.034l-10.03 10.031a2.146 2.146 0 01-3.031 0l-5.98-5.98zm23.117-19.13a2.147 2.147 0 01-2.145-2.145c0-1.183.962-2.145 2.145-2.145h25.9a2.145 2.145 0 110 4.29zM26.051 50.79a2.144 2.144 0 113.034-3.034l4.464 4.467 8.517-8.515a2.14 2.14 0 013.031 0 2.14 2.14 0 010 3.03L35.065 56.77a2.14 2.14 0 01-3.03 0l-5.98-5.98zm23.117-19.133a2.147 2.147 0 01-2.145-2.144c0-1.184.962-2.145 2.145-2.145h25.9c1.184 0 2.146.961 2.146 2.145a2.147 2.147 0 01-2.145 2.144z"/></svg>
