<svg width="100" height="100" xmlns="http://www.w3.org/2000/svg"><path d="M3.802 16.047c0-5.758 4.668-10.426 10.426-10.426h46.338c5.758 0 10.426 4.668 10.426 10.426v3.475h7.186c4.029 0 7.697 2.322 9.422 5.963l7.874 16.623a10.428 10.428 0 011.003 4.463v25.081c0 5.758-4.668 10.426-10.426 10.426H77.75c-1.103 6.575-6.821 11.585-13.71 11.585-6.887 0-12.605-5.01-13.708-11.585H40.68c-1.103 6.575-6.821 11.585-13.71 11.585-6.903 0-12.631-5.033-13.716-11.63-5.301-.49-9.452-4.951-9.452-10.38zm85.725 47.496h-5.793a3.475 3.475 0 100 6.951h5.793zm-1.468-20.852l-6.74-14.23a3.476 3.476 0 00-3.141-1.988h-7.186V42.69zm-61.088 44.02a6.95 6.95 0 100-13.9 6.95 6.95 0 000 13.9zm44.02-6.95a6.95 6.95 0 10-13.901 0 6.95 6.95 0 0013.902 0z"/></svg>
