<svg viewBox="-5 -10 100 100" width="100" height="100" xmlns="http://www.w3.org/2000/svg"><path d="M13.748 8.61v7.75h10.969v-4.626H26.279c.86 0 1.563-.687 1.563-1.562 0-.86-.703-1.563-1.563-1.563zm42.234 8.171v4.782h8.98V16.78zm12.565 0v4.782h8.98V16.78zm-54.799 2.705v6.157h4c.64 0 1.219.39 1.453.984l2.125 5.36h12.11V22.61h2.558c.86 0 1.563-.703 1.563-1.562 0-.875-.703-1.563-1.563-1.563zm36.75 3.764V28.254h8.555V23.25zm11.97.002v5.002h8.557v-5.002zm11.973 0v5.002h8.555v-5.002zM6.014 28.768l8.703 19.953c.062.125.111.198.168.34a10.201 10.201 0 002.285-1.747c.61-.609 1.61-.609 2.219 0 4.39 4.391 11.516 4.391 15.906 0 .61-.609 1.61-.609 2.219 0 4.39 4.391 11.516 4.391 15.906 0 .61-.609 1.61-.609 2.219 0 4.39 4.391 11.516 4.391 15.906 0 .61-.609 1.61-.609 2.219 0 .968.97 1.959 1.69 3.162 2.26.075-.175.15-.353.228-.54l7.844-19.313h-24.11l-2.077 4.437a1.544 1.544 0 01-1.438.953h-37.11c-.64 0-1.218-.39-1.452-.984l-2.125-5.36zm44.5.935v3.057h6.982l1.266-3.035v-.022zm23.015 4.283h1.047c.86 0 1.563.703 1.563 1.563s-.703 1.562-1.563 1.562H73.53c-.86 0-1.562-.703-1.562-1.562 0-.86.703-1.563 1.562-1.563zM.15 48.04c-.4 0-.801.152-1.108.457-.61.61-.61 1.598 0 2.211 5.25 5.25 13.586 5.582 19.23.996 5.262 4.274 12.863 4.274 18.125 0 5.262 4.277 12.863 4.277 18.125 0 5.262 4.277 12.863 4.274 18.125 0a14.33 14.33 0 009.063 3.207 14.35 14.35 0 0010.168-4.203c.61-.61.61-1.598 0-2.21a1.565 1.565 0 00-2.211 0h.008a11.184 11.184 0 01-7.957 3.296 11.178 11.178 0 01-7.957-3.297 1.565 1.565 0 00-2.211 0c-4.39 4.387-11.527 4.39-15.918 0a1.565 1.565 0 00-2.211 0c-4.39 4.387-11.527 4.387-15.914 0a1.565 1.565 0 00-2.211 0c-4.39 4.387-11.527 4.387-15.918 0a1.565 1.565 0 00-2.211 0 11.184 11.184 0 01-7.957 3.297 11.178 11.178 0 01-7.957-3.297 1.555 1.555 0 00-1.104-.457zm18.359 5.03l-1.645 1.042 6.721 15.194 44.863.224 6.324-15.258-1.865-1.138L66.88 67.71l-41.854-.2zM30 58.142v4.78h8.98v-4.78zm12.992 0v4.78h8.979v-4.78zm12.99 0v4.78h8.98v-4.78z"/></svg>