<svg width="100" height="100" xmlns="http://www.w3.org/2000/svg"><g stroke-width="1.623"><path d="M56.2 9.413c-9.317 2.67-1.036 12.009-4.813 16.897 8.771-2.43.726-12.419 4.812-16.897zM46.393 26.31c-3.777-4.888 4.522-14.227-4.794-16.897 4.067 4.478-3.96 14.467 4.794 16.897zM92.374 83.442c-4.522-2.373-11.005-3.87-18.197-4.238a61.254 61.254 0 01-4.303 2.882h.762c6.265 0 12.295.947 16.78 2.585-4.485 1.64-10.496 2.586-16.78 2.586-5.448 0-10.696-.707-14.909-1.978 5.848-1.907 11.913-5.17 17.36-9.395 7.446-5.792 12.568-12.517 14.057-18.437l.544-2.161-2.778.424c-7.446 1.13-15.89 4.973-23.226 10.567-.073 1.37-.182 2.74-.291 4.125a4.275 4.275 0 00-.036.48c.817-.72 1.67-1.426 2.56-2.118 5.83-4.535 12.603-7.954 18.687-9.494-1.98 4.733-6.374 10.002-12.204 14.537-4.522 3.518-9.624 6.372-14.528 8.194.763-4.14 1.326-8.533 1.671-12.474 1.326-15.23.236-29.683-2.996-39.643l-.364-1.13H43.796l-.363 1.13c-2.779 8.604-3.977 20.556-3.396 33.469a61.378 61.378 0 013.995 3.164c-.654-9.607-.309-18.79.926-26.517h8.045c1.362 8.49 1.634 18.705.708 29.343-.417 4.832-1.035 9.126-1.725 12.785-2.215-5.128-6.81-10.61-13.02-15.455-7.446-5.793-16.09-9.777-23.7-10.935l-2.778-.424.545 2.162c1.49 5.92 6.61 12.644 14.056 18.436l.345.269c.636-.014 1.253-.029 1.907-.029 1.307 0 2.578.043 3.85.1a58.507 58.507 0 01-3.396-2.445c-5.83-4.535-10.224-9.804-12.204-14.537 6.084 1.54 12.858 4.959 18.687 9.494 5.32 4.139 9.443 8.9 11.64 13.294-5.03-1.88-11.586-2.925-18.56-2.925-8.57 0-16.488 1.583-21.736 4.338L5.26 84.7l2.36 1.229c5.249 2.755 13.166 4.337 21.738 4.337 6.01 0 11.876-.805 16.616-2.275-1.525-.692-3.396-1.285-5.484-1.751-3.432.678-7.246 1.045-11.15 1.045-6.265 0-12.294-.946-16.78-2.585 4.486-1.64 10.496-2.586 16.78-2.586 7.7 0 15.036 1.427 19.594 3.829 5.248 2.755 13.166 4.337 21.738 4.337 8.571 0 16.489-1.582 21.737-4.337l2.36-1.23zM45.484 36.99c.382-1.865.8-3.63 1.29-5.283h4.377c.49 1.652.926 3.418 1.29 5.283z"/></g></svg>
