<svg width="100" height="100" xmlns="http://www.w3.org/2000/svg"><rect width="89.988" height="89.988" x="5.016" y="4.914" ry="8.186" fill="#fff6d5" fill-rule="evenodd" stroke="#000" stroke-width="4" stroke-linecap="round" stroke-linejoin="round"/><path d="M67.223 50.187c-4.425 0-8.282 2.553-10.21 6.216-1.59-2.109-4.085-3.44-6.808-3.44s-5.333 1.331-6.808 3.44c-1.815-3.663-5.672-6.216-10.21-6.216-5.787 0-10.552 4.218-11.233 9.767h-5.786v2.775h5.786c.681 5.439 5.446 9.767 11.232 9.767 6.24 0 11.346-4.994 11.346-11.099 0-3.107 2.496-5.55 5.673-5.55 3.176 0 5.673 2.443 5.673 5.55 0 6.105 5.105 11.1 11.345 11.1 5.786 0 10.551-4.218 11.232-9.768h5.786v-2.775h-5.786c-.68-5.549-5.446-9.767-11.232-9.767zM72.896 39.088L67.223 22.44H33.187l-5.673 16.648-17.019 5.55v2.775h79.419v-2.775z"/></svg>
